<svg width="350" height="350" viewBox="0 0 350 350" fill="none" xmlns="http://www.w3.org/2000/svg">
<g clip-path="url(#clip0_18_3)">
<circle cx="175" cy="175" r="175" fill="#23243E"/>
<path d="M176.529 94H204.349V187.418C204.349 210.354 198.344 227.519 186.334 238.911C174.172 250.304 159.046 256 140.955 256C120.432 256 103.937 250 91.471 238C79.157 226 73 208.608 73 185.823V94H101.049V179.899C101.049 195.696 104.393 208 111.082 216.81C117.923 225.468 127.881 229.797 140.955 229.797C164.671 229.797 176.529 213.772 176.529 181.722V94Z" fill="white"/>
<path d="M278 253.494H249.951V94H278V253.494Z" fill="white"/>
</g>
<defs>
<clipPath id="clip0_18_3">
<rect width="350" height="350" fill="white"/>
</clipPath>
</defs>
</svg>
